<!DOCTYPE svg PUBLIC "-//W3C//DTD SVG 20010904//EN" "http://www.w3.org/TR/2001/REC-SVG-20010904/DTD/svg10.dtd">
<svg version="1.0" xmlns="http://www.w3.org/2000/svg" width="594px" height="595px" viewBox="0 0 5940 5950" preserveAspectRatio="xMidYMid meet">
<g id="layer101" fill="#000084" stroke="none">
 <path d="M4215 5729 c-160 -55 -323 -180 -800 -609 -308 -278 -443 -385 -555 -444 -101 -53 -136 -59 -224 -41 -135 28 -276 96 -701 340 -559 320 -728 398 -890 412 -88 7 -134 -6 -174 -52 -98 -112 -55 -330 165 -832 245 -558 295 -678 328 -783 38 -119 53 -223 42 -283 -20 -106 -191 -293 -616 -671 -566 -505 -719 -707 -652 -858 24 -54 73 -87 172 -114 119 -33 492 -22 870 26 337 43 647 63 768 50 144 -15 168 -24 232 -89 93 -95 174 -245 365 -676 267 -601 352 -756 481 -874 142 -130 266 -76 372 159 61 134 119 351 207 765 94 442 142 619 206 752 89 186 188 217 979 303 453 49 656 82 790 128 158 55 240 130 240 220 0 50 -46 127 -118 198 -116 115 -289 230 -702 464 -496 282 -663 399 -728 509 -23 40 -27 59 -31 150 -5 157 17 290 159 944 60 278 80 407 87 554 10 213 -21 313 -110 354 -53 24 -87 23 -162 -2z m262 -331 c-2 -24 -4 -7 -4 37 0 44 2 63 4 43 2 -21 2 -57 0 -80z m-3449 -25 c-10 -2 -26 -2 -35 0 -10 3 -2 5 17 5 19 0 27 -2 18 -5z m162 -2268 c-24 -25 -46 -45 -49 -45 -3 0 15 20 39 45 24 25 46 45 49 45 3 0 -15 -20 -39 -45z m-130 -118 c0 -2 -15 -16 -32 -33 l-33 -29 29 33 c28 30 36 37 36 29z m-550 -500 c0 -1 -39 -41 -87 -87 l-88 -85 85 88 c79 81 90 92 90 84z m258 -694 c-10 -2 -26 -2 -35 0 -10 3 -2 5 17 5 19 0 27 -2 18 -5z"/>
 </g>
<g id="layer102" fill="#ffff00" stroke="none">
 <path d="M4260 5724 c-213 -78 -328 -163 -795 -584 -351 -317 -501 -435 -629 -496 -165 -79 -311 -29 -882 299 -583 335 -751 413 -919 423 -99 7 -139 -11 -173 -76 -65 -128 11 -393 289 -1003 246 -539 314 -771 261 -890 -60 -135 -174 -255 -617 -651 -553 -494 -716 -710 -636 -842 77 -126 355 -143 1031 -64 538 63 801 68 924 16 112 -47 236 -257 476 -806 147 -336 256 -557 323 -655 92 -134 186 -215 251 -215 69 0 136 58 194 168 66 125 135 366 227 802 102 480 153 661 222 792 88 168 206 203 993 288 560 60 734 95 883 173 141 74 152 182 32 315 -102 113 -270 227 -690 467 -308 176 -507 296 -580 350 -85 64 -174 153 -198 199 -27 52 -35 201 -17 330 13 100 76 417 139 706 86 396 94 449 95 645 1 174 0 181 -24 224 -14 24 -37 53 -51 64 -27 19 -101 31 -129 21z"/>
 </g>
<g id="layer103" fill="#ffffae" stroke="none">
 <path d="M3791 5329 c-93 -65 -233 -182 -451 -377 -96 -87 -209 -186 -250 -221 -98 -84 -112 -99 -75 -76 84 51 198 145 451 372 190 170 317 280 375 325 57 45 27 31 -50 -23z"/>
 <path d="M986 5199 c-30 -51 -36 -98 -25 -187 15 -126 66 -278 195 -587 311 -747 350 -857 342 -979 -8 -136 -119 -257 -688 -762 -367 -326 -533 -515 -561 -640 -11 -47 -10 -56 8 -86 47 -81 137 -104 382 -95 118 4 246 18 441 47 646 96 626 94 815 94 170 1 183 0 229 -23 97 -48 202 -235 425 -756 223 -523 303 -685 402 -818 59 -79 104 -116 154 -127 50 -11 53 5 16 72 -17 30 -31 69 -31 86 0 26 -4 31 -32 38 -66 14 -182 161 -277 352 -39 77 -124 272 -203 462 -186 452 -297 664 -382 731 -57 44 -94 53 -236 52 -137 -1 -279 -20 -695 -92 -421 -74 -639 -91 -769 -62 -81 18 -126 60 -133 123 -15 134 151 335 687 835 268 249 410 397 471 490 97 149 83 208 -167 707 -198 396 -257 537 -306 736 -26 108 -29 301 -6 373 l16 47 -27 0 c-19 0 -32 -9 -45 -31z"/>
 <path d="M4300 3657 c0 -2 15 -16 33 -33 l32 -29 -29 33 c-28 30 -36 37 -36 29z"/>
 <path d="M5420 2484 c-102 -33 -327 -66 -735 -109 -388 -41 -582 -78 -686 -130 -35 -18 -79 -54 -79 -65 0 -4 31 1 69 11 90 23 298 52 596 84 567 61 792 112 874 199 27 29 24 30 -39 10z"/>
 </g>

</svg>